<svg width="56" height="56" xmlns="http://www.w3.org/2000/svg">
 <g id="Layer_1">
  <title>Layer 1</title>
  <g id="svg_2">
   <rect style="fill:#69a2f5;opacity:0.5" width="55" height="56" x="-55" y="-56" rx="12" ry="12" transform="matrix(0,-1,-1,0,0,0)"/>
   <rect id="svg_4" width="16" height="16" x="7.998" y="7.998" fill="#ff6060" stroke="#808080" stroke-width="1" opacity="0.7"/>
   <rect id="svg_6" width="16" height="16" x="7.998" y="31.998" fill="#00a0a0" stroke="#808080" stroke-width="1" opacity="0.7"/>
   <rect id="svg_7" width="16" height="16" x="31.998" y="31.998" fill="#0000ff" stroke="#808080" stroke-width="1" opacity="0.7"/>
  </g>
  <g>
   <title id="svg_11">Settings</title>
   <path fill="#808080" stroke="#808080" stroke-width="1" opacity="1" d="m33.13378,16.60631c-0.02319,-0.23186 -0.03506,-0.46706 -0.03506,-0.70503c0,-0.23797 0.01187,-0.47317 0.03506,-0.70503l-1.82929,-2.06292l2,-3.4641l2.7012,0.55276c0.38032,-0.27458 0.78932,-0.51189 1.22166,-0.70659l0.87137,-2.61412l4,0l0.87137,2.61412c0.43234,0.1947 0.84134,0.43201 1.22166,0.70659l2.7012,-0.55276l2,3.4641l-1.82929,2.06292c0.02319,0.23186 0.03506,0.46706 0.03506,0.70503c0,0.23797 -0.01187,0.47317 -0.03506,0.70503l1.82929,2.06292l-2,3.4641l-2.7012,-0.55276c-0.38032,0.27458 -0.78932,0.51189 -1.22166,0.70659l-0.87137,2.61412l-4,0l-0.87137,-2.61412c-0.43234,-0.1947 -0.84134,-0.43201 -1.22166,-0.70659l-2.7012,0.55276l-2,-3.4641l1.82929,-2.06292z"/>
  </g>
 </g>

</svg>