<?xml version="1.0" encoding="UTF-8" standalone="no"?>
<svg
   width="64"
   height="64"
   version="1.1"
   id="svg75"
   sodipodi:docname="111111.svg"
   inkscape:version="1.1 (c4e8f9e, 2021-05-24)"
   xmlns:inkscape="http://www.inkscape.org/namespaces/inkscape"
   xmlns:sodipodi="http://sodipodi.sourceforge.net/DTD/sodipodi-0.dtd"
   xmlns="http://www.w3.org/2000/svg"
   xmlns:svg="http://www.w3.org/2000/svg">
  <defs
     id="defs79" />
  <sodipodi:namedview
     id="namedview77"
     pagecolor="#ffffff"
     bordercolor="#666666"
     borderopacity="1.0"
     inkscape:pageshadow="2"
     inkscape:pageopacity="0.0"
     inkscape:pagecheckerboard="0"
     showgrid="false"
     inkscape:zoom="7.7265625"
     inkscape:cx="-5.5005056"
     inkscape:cy="49.375126"
     inkscape:window-width="2240"
     inkscape:window-height="1300"
     inkscape:window-x="0"
     inkscape:window-y="0"
     inkscape:window-maximized="1"
     inkscape:current-layer="svg75" />
  <g
     id="Layer_1"
     transform="matrix(1,0,0,1.0181818,4,4)">
    <title
       id="title61">Layer 1</title>
    <g
       id="svg_2">
      <rect
         style="opacity:0.5;fill:#69a2f5"
         width="55"
         height="56"
         x="-55"
         y="-56"
         rx="12"
         ry="12"
         transform="matrix(0,-1,-1,0,0,0)"
         id="rect63" />
      <rect
         id="svg_4"
         width="16"
         height="16"
         x="7.9980001"
         y="7.9980001"
         fill="#ff6060"
         stroke="#808080"
         stroke-width="1"
         opacity="0.7" />
      <rect
         id="svg_6"
         width="16"
         height="16"
         x="7.9980001"
         y="31.997999"
         fill="#00a0a0"
         stroke="#808080"
         stroke-width="1"
         opacity="0.7" />
      <rect
         id="svg_7"
         width="16"
         height="16"
         x="31.997999"
         y="31.997999"
         fill="#0000ff"
         stroke="#808080"
         stroke-width="1"
         opacity="0.7" />
    </g>
    <g
       id="g72">
      <title
         id="svg_11">Settings</title>
      <path
         fill="#808080"
         stroke="#808080"
         stroke-width="1"
         opacity="1"
         d="m 33.13378,16.60631 c -0.02319,-0.23186 -0.03506,-0.46706 -0.03506,-0.70503 0,-0.23797 0.01187,-0.47317 0.03506,-0.70503 l -1.82929,-2.06292 2,-3.4641 2.7012,0.55276 C 36.38601,9.94741 36.79501,9.7101 37.22735,9.5154 l 0.87137,-2.61412 h 4 l 0.87137,2.61412 c 0.43234,0.1947 0.84134,0.43201 1.22166,0.70659 l 2.7012,-0.55276 2,3.4641 -1.82929,2.06292 c 0.02319,0.23186 0.03506,0.46706 0.03506,0.70503 0,0.23797 -0.01187,0.47317 -0.03506,0.70503 l 1.82929,2.06292 -2,3.4641 -2.7012,-0.55276 c -0.38032,0.27458 -0.78932,0.51189 -1.22166,0.70659 l -0.87137,2.61412 h -4 l -0.87137,-2.61412 c -0.43234,-0.1947 -0.84134,-0.43201 -1.22166,-0.70659 l -2.7012,0.55276 -2,-3.4641 z"
         id="path70" />
    </g>
  </g>
</svg>
