<svg width="330" height="330" xmlns="http://www.w3.org/2000/svg" xmlns:xlink="http://www.w3.org/1999/xlink" xml:space="preserve" overflow="hidden"><defs><clipPath id="clip0"><rect x="2834" y="1118" width="330" height="330"/></clipPath><linearGradient x1="3164" y1="1448" x2="2834" y2="1118" gradientUnits="userSpaceOnUse" spreadMethod="reflect" id="fill1"><stop offset="0" stop-color="#A5A5A5"/><stop offset="0.44" stop-color="#969696"/><stop offset="1" stop-color="#BFBFBF"/></linearGradient></defs><g clip-path="url(#clip0)" transform="translate(-2834 -1118)"><path d="M2834 1204.43C2834 1156.7 2872.7 1118 2920.43 1118L3077.57 1118C3125.3 1118 3164 1156.7 3164 1204.43L3164 1361.57C3164 1409.3 3125.3 1448 3077.57 1448L2920.43 1448C2872.7 1448 2834 1409.3 2834 1361.57Z" fill="url(#fill1)" fill-rule="evenodd"/><path d="M2881 1218.5C2881 1188.95 2904.95 1165 2934.5 1165L2934.5 1165C2964.05 1165 2988 1188.95 2988 1218.5L2988 1219.5C2988 1249.05 2964.05 1273 2934.5 1273L2934.5 1273C2904.95 1273 2881 1249.05 2881 1219.5Z" fill="#FFA891" fill-rule="evenodd"/><path d="M3010 1218.5C3010 1188.95 3033.95 1165 3063.5 1165L3063.5 1165C3093.05 1165 3117 1188.95 3117 1218.5L3117 1219.5C3117 1249.05 3093.05 1273 3063.5 1273L3063.5 1273C3033.95 1273 3010 1249.05 3010 1219.5Z" fill="#F2F2F2" fill-rule="evenodd"/><path d="M3010 1347.5C3010 1317.95 3033.95 1294 3063.5 1294L3063.5 1294C3093.05 1294 3117 1317.95 3117 1347.5L3117 1348.5C3117 1378.05 3093.05 1402 3063.5 1402L3063.5 1402C3033.95 1402 3010 1378.05 3010 1348.5Z" fill="#85C0FF" fill-rule="evenodd"/><path d="M2881 1347.5C2881 1317.95 2904.95 1294 2934.5 1294L2934.5 1294C2964.05 1294 2988 1317.95 2988 1347.5L2988 1348.5C2988 1378.05 2964.05 1402 2934.5 1402L2934.5 1402C2904.95 1402 2881 1378.05 2881 1348.5Z" fill="#79D5AE" fill-rule="evenodd"/></g></svg>