<?xml version="1.0" standalone="no"?><!DOCTYPE svg PUBLIC "-//W3C//DTD SVG 1.1//EN" "http://www.w3.org/Graphics/SVG/1.1/DTD/svg11.dtd"><svg t="1681271674338" class="icon" viewBox="0 0 1024 1024" version="1.1" xmlns="http://www.w3.org/2000/svg" p-id="1483" xmlns:xlink="http://www.w3.org/1999/xlink" width="200" height="200"><path d="M741.248 79.68l-234.112 350.08v551.488l55.296 24.704v-555.776l249.152-372.544c8.064-32.96-10.496-59.712-41.152-59.712h-709.248c-30.464 0-49.28 26.752-41.344 59.712l265.728 372.544v432.256l55.36 24.704v-478.592l-248.896-348.864h649.216z m-68.032 339.648c0-16.832 12.096-30.592 27.264-30.848h277.888c15.232 0 27.712 13.824 27.712 30.848s-12.416 30.848-27.712 30.848h-277.888c-15.168-0.32-27.264-14.016-27.264-30.848z m0 185.216c0-16.832 12.096-30.592 27.264-30.848h277.888c15.232 0 27.712 13.824 27.712 30.848s-12.416 30.848-27.712 30.848h-277.888c-15.168-0.256-27.264-14.016-27.264-30.848z m0 185.28c0-16.832 12.096-30.592 27.264-30.848h277.888c15.232 0 27.712 13.824 27.712 30.848s-12.416 30.848-27.712 30.848h-277.888c-15.168-0.32-27.264-13.952-27.264-30.848z" p-id="1484"></path></svg>