<?xml version="1.0" standalone="no"?><!DOCTYPE svg PUBLIC "-//W3C//DTD SVG 1.1//EN" "http://www.w3.org/Graphics/SVG/1.1/DTD/svg11.dtd"><svg t="1681277791163" class="icon" viewBox="0 0 1024 1024" version="1.1" xmlns="http://www.w3.org/2000/svg" p-id="6549" xmlns:xlink="http://www.w3.org/1999/xlink" width="200" height="200"><path d="M768 362.666667a21.333333 21.333333 0 0 1 21.333333 21.333333v387.648l61.418667-61.397333a21.333333 21.333333 0 0 1 30.165333 0l30.165334 30.165333a21.333333 21.333333 0 0 1 0 30.165333l-116.053334 116.053334a53.333333 53.333333 0 0 1-90.922666-34.218667L704 848.917333V384a21.333333 21.333333 0 0 1 21.333333-21.333333h42.666667zM554.666667 789.333333a21.333333 21.333333 0 0 1 21.333333 21.333334v42.666666a21.333333 21.333333 0 0 1-21.333333 21.333334H128a21.333333 21.333333 0 0 1-21.333333-21.333334v-42.666666a21.333333 21.333333 0 0 1 21.333333-21.333334h426.666667z m0-320a21.333333 21.333333 0 0 1 21.333333 21.333334v42.666666a21.333333 21.333333 0 0 1-21.333333 21.333334H128a21.333333 21.333333 0 0 1-21.333333-21.333334v-42.666666a21.333333 21.333333 0 0 1 21.333333-21.333334h426.666667zM896 149.333333a21.333333 21.333333 0 0 1 21.333333 21.333334v42.666666a21.333333 21.333333 0 0 1-21.333333 21.333334H128a21.333333 21.333333 0 0 1-21.333333-21.333334V170.666667a21.333333 21.333333 0 0 1 21.333333-21.333334h768z" p-id="6550"></path></svg>